<svg width="13" height="13" viewBox="0 0 13 13" fill="none" xmlns="http://www.w3.org/2000/svg">
    <defs>
        <linearGradient id="lockSpectrumDark" x1="1" y1="0" x2="12" y2="13" gradientUnits="userSpaceOnUse">
            <stop offset="0" stop-color="#22D3EE"/>
            <stop offset="0.45" stop-color="#2DD4BF"/>
            <stop offset="1" stop-color="#34D399"/>
        </linearGradient>
    </defs>

    <!-- Road lane behind lock -->
    <rect x="0" y="0" width="0.6" height="13" fill="url(#lockSpectrumDark)" opacity="0.28"/>
    <rect x="12.4" y="0" width="0.6" height="13" fill="url(#lockSpectrumDark)" opacity="0.28"/>

    <!-- Dashed center line -->
    <rect x="6.2" y="0" width="0.6" height="1.5" rx="0.3" fill="url(#lockSpectrumDark)" opacity="0.28"/>
    <rect x="6.2" y="3" width="0.6" height="1.5" rx="0.3" fill="url(#lockSpectrumDark)" opacity="0.28"/>
    <rect x="6.2" y="6" width="0.6" height="1.5" rx="0.3" fill="url(#lockSpectrumDark)" opacity="0.28"/>
    <rect x="6.2" y="9" width="0.6" height="1.5" rx="0.3" fill="url(#lockSpectrumDark)" opacity="0.28"/>
    <rect x="6.2" y="12" width="0.6" height="1.5" rx="0.3" fill="url(#lockSpectrumDark)" opacity="0.28"/>

    <!-- Padlock on top -->
    <path d="M 3.8 5.5 V 3.8 C 3.8 1.6 4.9 0.5 6.5 0.5 C 8.1 0.5 9.2 1.6 9.2 3.8 V 5.5 L 7.7 5.5 V 3.8 C 7.7 2.6 7.2 2 6.5 2 C 5.8 2 5.3 2.6 5.3 3.8 V 5.5 Z" fill="url(#lockSpectrumDark)" fill-rule="evenodd"/>
    <rect x="2" y="5" width="9" height="6.5" rx="1.3" fill="url(#lockSpectrumDark)"/>
</svg>
